<svg version="1.1" id="Layer_1" xmlns="http://www.w3.org/2000/svg" xmlns:xlink="http://www.w3.org/1999/xlink" x="0px" y="0px"
	 width="100%" viewBox="0 0 225 225" enable-background="new 0 0 225 225" xml:space="preserve">
<path fill="#F6039C" opacity="1.000000" stroke="none" 
	d="
M119.000000,226.000000 
	C115.638710,226.000000 112.277428,226.000000 108.301361,225.676025 
	C91.426765,219.517349 85.348129,208.479630 88.838638,190.558517 
	C80.492897,185.756042 71.904907,181.072952 63.611732,175.915771 
	C60.250683,173.825668 58.301659,173.813080 55.189236,176.626129 
	C47.228771,183.820923 35.837421,184.785370 26.320030,179.856812 
	C17.445551,175.261185 11.478850,164.935303 12.367464,155.169525 
	C13.396676,143.858597 19.175104,135.968842 29.915182,131.910568 
	C31.425955,131.339706 32.964535,130.842407 34.492527,130.310272 
	C34.492527,118.926346 34.492527,107.810570 34.492527,96.559021 
	C21.574844,93.287476 13.491570,85.475662 12.466286,72.062202 
	C11.667364,61.610149 16.090265,53.130531 25.298105,47.864826 
	C37.930584,40.640667 49.175293,44.057049 59.205254,53.524929 
	C68.518036,48.162983 77.632889,43.024364 86.582909,37.613102 
	C87.614677,36.989285 88.352776,34.759476 88.164436,33.424145 
	C87.130417,26.092810 87.779388,19.201330 91.921265,12.820393 
	C96.017189,6.510252 102.218063,3.364918 109.000000,1.000000 
	C112.030594,1.000000 115.061188,1.000000 118.698006,1.334824 
	C134.446396,5.631355 141.940277,17.633598 139.291916,33.445087 
	C139.091187,34.643536 139.486221,36.703728 140.304855,37.194309 
	C149.532684,42.724052 158.897659,48.024925 168.077652,53.302048 
	C179.270782,43.679337 188.927597,41.699398 199.485428,46.615997 
	C208.981216,51.038029 215.249298,60.753811 214.648468,71.018341 
	C213.848892,84.678078 206.091492,92.819473 193.191223,96.454758 
	C193.191223,107.922554 193.191223,119.216904 193.191223,130.566681 
	C206.041092,134.173386 213.902985,142.213821 214.578079,155.655228 
	C215.115952,166.364990 210.204086,174.874344 200.637375,179.751358 
	C188.649857,185.862473 177.769745,183.038620 168.183548,173.633606 
	C158.888824,178.970444 149.627106,184.166306 140.556290,189.676422 
	C139.599075,190.257904 139.215836,192.793884 139.496216,194.243225 
	C141.736176,205.822006 136.385834,217.525757 126.081802,222.877945 
	C123.797081,224.064713 121.364502,224.966827 119.000000,226.000000 
M129.880066,63.643326 
	C127.618118,59.801350 125.356178,55.959373 123.486382,52.783463 
	C116.787247,52.783463 110.738411,52.783463 104.060585,52.783463 
	C88.179520,80.295326 71.944923,108.419632 56.269619,135.575043 
	C59.628353,141.593704 62.488949,146.719727 65.431816,151.993164 
	C97.494156,151.993164 129.922806,151.993164 161.454544,151.993164 
	C164.806625,146.214020 167.832214,140.997726 171.116318,135.335754 
	C171.218842,135.718018 171.197906,135.361465 171.038391,135.084793 
	C157.432724,111.486908 143.816330,87.895203 129.880066,63.643326 
M78.198700,52.731159 
	C73.321434,55.546169 68.444168,58.361179 63.352810,61.299763 
	C65.584244,69.082268 65.216469,76.471313 61.198273,83.523506 
	C57.177525,90.580177 50.688683,94.254272 43.394894,96.527252 
	C43.394894,108.108803 43.394894,119.240318 43.394894,130.607010 
	C44.993248,131.095459 46.505096,131.557480 48.142868,132.057968 
	C64.516808,103.706566 80.701881,75.682190 96.962952,47.526215 
	C95.659676,46.298122 94.482071,45.188442 93.270088,44.046379 
	C88.315872,46.880768 83.562759,49.600101 78.198700,52.731159 
M67.486298,168.030701 
	C76.089211,173.022141 84.692116,178.013565 93.201752,182.950882 
	C107.231636,170.325592 117.749344,170.328339 134.685608,182.777145 
	C144.402344,177.162003 154.144348,171.532257 163.853989,165.921219 
	C163.271515,164.016617 162.851837,162.644302 162.456787,161.352570 
	C129.612076,161.352570 97.025871,161.352570 64.702324,161.352570 
	C62.629818,164.694290 63.838093,166.570816 67.486298,168.030701 
M157.113815,93.395798 
	C164.524857,106.171944 171.935898,118.948090 179.469650,131.935791 
	C181.158234,131.356262 182.623993,130.853195 183.956863,130.395737 
	C183.956863,118.854469 183.956863,107.719933 183.956863,96.372665 
	C176.106781,94.494652 169.859406,90.486374 165.771759,83.465401 
	C161.605194,76.308868 161.501144,68.731392 163.715698,60.964367 
	C153.741425,55.220959 144.113892,49.677219 134.246063,43.995106 
	C133.078217,45.223618 131.977448,46.381561 130.758163,47.664185 
	C139.517349,62.829597 148.154266,77.783310 157.113815,93.395798 
z"/>
<path fill="#FFFEFE" opacity="1.000000" stroke="none" 
	d="
M108.531342,1.000000 
	C102.218063,3.364918 96.017189,6.510252 91.921265,12.820393 
	C87.779388,19.201330 87.130417,26.092810 88.164436,33.424145 
	C88.352776,34.759476 87.614677,36.989285 86.582909,37.613102 
	C77.632889,43.024364 68.518036,48.162983 59.205254,53.524929 
	C49.175293,44.057049 37.930584,40.640667 25.298105,47.864826 
	C16.090265,53.130531 11.667364,61.610149 12.466286,72.062202 
	C13.491570,85.475662 21.574844,93.287476 34.492527,96.559021 
	C34.492527,107.810570 34.492527,118.926346 34.492527,130.310272 
	C32.964535,130.842407 31.425955,131.339706 29.915182,131.910568 
	C19.175104,135.968842 13.396676,143.858597 12.367464,155.169525 
	C11.478850,164.935303 17.445551,175.261185 26.320030,179.856812 
	C35.837421,184.785370 47.228771,183.820923 55.189236,176.626129 
	C58.301659,173.813080 60.250683,173.825668 63.611732,175.915771 
	C71.904907,181.072952 80.492897,185.756042 88.838638,190.558517 
	C85.348129,208.479630 91.426765,219.517349 107.843292,225.676025 
	C72.368820,226.000000 36.737637,226.000000 1.053228,226.000000 
	C1.053228,151.110138 1.053228,76.220222 1.053228,1.000000 
	C36.686882,1.000000 72.374779,1.000000 108.531342,1.000000 
z"/>
<path fill="#FFFEFF" opacity="1.000000" stroke="none" 
	d="
M119.468658,226.000000 
	C121.364502,224.966827 123.797081,224.064713 126.081802,222.877945 
	C136.385834,217.525757 141.736176,205.822006 139.496216,194.243225 
	C139.215836,192.793884 139.599075,190.257904 140.556290,189.676422 
	C149.627106,184.166306 158.888824,178.970444 168.183548,173.633606 
	C177.769745,183.038620 188.649857,185.862473 200.637375,179.751358 
	C210.204086,174.874344 215.115952,166.364990 214.578079,155.655228 
	C213.902985,142.213821 206.041092,134.173386 193.191223,130.566681 
	C193.191223,119.216904 193.191223,107.922554 193.191223,96.454758 
	C206.091492,92.819473 213.848892,84.678078 214.648468,71.018341 
	C215.249298,60.753811 208.981216,51.038029 199.485428,46.615997 
	C188.927597,41.699398 179.270782,43.679337 168.077652,53.302048 
	C158.897659,48.024925 149.532684,42.724052 140.304855,37.194309 
	C139.486221,36.703728 139.091187,34.643536 139.291916,33.445087 
	C141.940277,17.633598 134.446396,5.631355 119.152115,1.334824 
	C154.631088,1.000000 190.262161,1.000000 225.946625,1.000000 
	C225.946625,75.889565 225.946625,150.779175 225.946625,226.000000 
	C190.646469,226.000000 155.291885,226.000000 119.468658,226.000000 
z"/>
<path fill="#FFFEFF" opacity="1.000000" stroke="none" 
	d="
M130.040375,63.973190 
	C143.816330,87.895203 157.432724,111.486908 171.038391,135.084793 
	C171.197906,135.361465 171.218842,135.718018 171.116318,135.335754 
	C167.832214,140.997726 164.806625,146.214020 161.454544,151.993164 
	C129.922806,151.993164 97.494156,151.993164 65.431816,151.993164 
	C62.488949,146.719727 59.628353,141.593704 56.269619,135.575043 
	C71.944923,108.419632 88.179520,80.295326 104.060585,52.783463 
	C110.738411,52.783463 116.787247,52.783463 123.486382,52.783463 
	C125.356178,55.959373 127.618118,59.801350 130.040375,63.973190 
z"/>
<path fill="#FFF9FC" opacity="1.000000" stroke="none" 
	d="
M78.504181,52.525299 
	C83.562759,49.600101 88.315872,46.880768 93.270088,44.046379 
	C94.482071,45.188442 95.659676,46.298122 96.962952,47.526215 
	C80.701881,75.682190 64.516808,103.706566 48.142868,132.057968 
	C46.505096,131.557480 44.993248,131.095459 43.394894,130.607010 
	C43.394894,119.240318 43.394894,108.108803 43.394894,96.527252 
	C50.688683,94.254272 57.177525,90.580177 61.198273,83.523506 
	C65.216469,76.471313 65.584244,69.082268 63.352810,61.299763 
	C68.444168,58.361179 73.321434,55.546169 78.504181,52.525299 
z"/>
<path fill="#FFFAFD" opacity="1.000000" stroke="none" 
	d="
M67.152420,167.894562 
	C63.838093,166.570816 62.629818,164.694290 64.702324,161.352570 
	C97.025871,161.352570 129.612076,161.352570 162.456787,161.352570 
	C162.851837,162.644302 163.271515,164.016617 163.853989,165.921219 
	C154.144348,171.532257 144.402344,177.162003 134.685608,182.777145 
	C117.749344,170.328339 107.231636,170.325592 93.201752,182.950882 
	C84.692116,178.013565 76.089211,173.022141 67.152420,167.894562 
z"/>
<path fill="#FFFBFD" opacity="1.000000" stroke="none" 
	d="
M156.952499,93.066406 
	C148.154266,77.783310 139.517349,62.829597 130.758163,47.664185 
	C131.977448,46.381561 133.078217,45.223618 134.246063,43.995106 
	C144.113892,49.677219 153.741425,55.220959 163.715698,60.964367 
	C161.501144,68.731392 161.605194,76.308868 165.771759,83.465401 
	C169.859406,90.486374 176.106781,94.494652 183.956863,96.372665 
	C183.956863,107.719933 183.956863,118.854469 183.956863,130.395737 
	C182.623993,130.853195 181.158234,131.356262 179.469650,131.935791 
	C171.935898,118.948090 164.524857,106.171944 156.952499,93.066406 
z"/>
</svg>